<?xml version="1.0" encoding="utf-8"?>
<!-- Uploaded to SVGRepo https://www.svgrepo.com -->
<svg version="1.1" id="_x31_" xmlns="http://www.w3.org/2000/svg" xmlns:xlink="http://www.w3.org/1999/xlink" x="0px" y="0px"
	 viewBox="0 0 128 128" style="enable-background:new 0 0 128 128;" xml:space="preserve">
<g id="_x31__57_">
	<path id="_x34__33_" d="M104.6,44.3c-0.5-0.7-1.3-1.1-2.1-1.1L36,42.7l-3.6-15.5c-0.3-1.2-1.4-2-2.7-2.1l-16.3-0.1
		c-1.6,0-2.8,1.1-2.7,2.7c0,1.6,1.1,2.8,2.7,2.7l14.2,0.1L45.8,106c0.3,1.2,1.4,2,2.7,2.1l39.4,0.4c0.3-0.1,0.4,0,0.7,0
		c1.2-0.3,2-1.4,2-2.6c0-1.6-1.1-2.8-2.7-2.7l-37.3-0.3l-2.8-11.2l45.1-4.7c1.1-0.1,2-0.9,2.3-2l9.9-38
		C105.2,45.9,105,44.9,104.6,44.3z M37.3,48.2l15.5,0.2l-0.2,16.1l-11.6-0.1L37.3,48.2z M52.5,85.4l-6.1,0.7l-4-16.4l10.1,0.1
		L52.5,85.4z M74.4,83L58,84.8l0.1-14.9L74.6,70L74.4,83z M58.2,64.4l0.2-16.1l16.2,0.2l-0.1,16L58.2,64.4z M90.4,81.4l-10.6,0.8
		L79.9,70l13.3,0L90.4,81.4z M94.7,64.7l-14.6-0.1l0.2-16.1L99,48.7L94.7,64.7z"/>
	
		<ellipse id="_x33__33_" transform="matrix(8.970169e-03 -1 1 8.970169e-03 -68.4538 163.4287)" cx="48.2" cy="116.2" rx="5.4" ry="5.4"/>
	
		<ellipse id="_x33__32_" transform="matrix(8.970169e-03 -1 1 8.970169e-03 -29.7338 203.2406)" cx="87.7" cy="116.6" rx="5.4" ry="5.4"/>
</g>
</svg>
